<?xml version="1.0" standalone="no"?><!DOCTYPE svg PUBLIC "-//W3C//DTD SVG 1.1//EN" "http://www.w3.org/Graphics/SVG/1.1/DTD/svg11.dtd"><svg t="1548433100522" class="icon" style="" viewBox="0 0 1024 1024" version="1.1" xmlns="http://www.w3.org/2000/svg" p-id="2266" xmlns:xlink="http://www.w3.org/1999/xlink" width="16" height="16"><defs><style type="text/css"></style></defs><path d="M922.112 402.944c-20.992-14.848-50.688-9.728-65.536 11.264-14.848 20.992-9.728 50.688 11.264 65.536 38.912 27.136 61.952 73.216 61.952 123.392 0 80.384-59.904 146.432-133.632 146.432h-87.552c58.368-60.416 94.72-144.384 94.72-237.056 0-182.272-140.288-330.752-312.832-330.752C368.64 181.76 262.656 256 210.944 364.032 93.696 372.224 0 476.16 0 603.136c0 132.096 101.888 240.128 227.84 240.128h568.832c125.44 0 227.84-107.52 227.84-240.128-0.512-80.896-38.4-155.648-102.4-200.192zM93.696 603.136c0-62.976 36.864-116.736 88.064-137.216-2.048 15.36-3.072 30.72-3.072 46.592 0 26.112 20.992 47.104 47.104 47.104s47.104-20.992 47.104-47.104c0-130.56 98.304-237.056 218.624-237.056s218.624 106.496 218.624 237.056-98.304 237.056-218.624 237.056H227.84c-74.24-0.512-134.144-66.048-134.144-146.432z" p-id="2267"></path></svg>