<?xml version="1.0" standalone="no"?><!DOCTYPE svg PUBLIC "-//W3C//DTD SVG 1.1//EN" "http://www.w3.org/Graphics/SVG/1.1/DTD/svg11.dtd"><svg t="1551959579354" class="icon" style="" viewBox="0 0 1024 1024" version="1.1" xmlns="http://www.w3.org/2000/svg" p-id="7211" xmlns:xlink="http://www.w3.org/1999/xlink" width="16" height="16"><defs><style type="text/css"></style></defs><path d="M768 480H544V256a32 32 0 0 0-64 0v224H256a32 32 0 0 0 0 64h224v224a32 32 0 0 0 64 0V544h224a32 32 0 0 0 0-64z" p-id="7212"></path><path d="M864 64H160c-53.008 0-96 43.008-96 96v704a96 96 0 0 0 96 96h704c53.008 0 96-43.008 96-96V160c0-52.992-42.992-96-96-96z m32 800a32 32 0 0 1-32 32H160c-17.648 0-32-14.336-32-32V160c0-17.664 14.352-32 32-32h704a32 32 0 0 1 32 32v704z" p-id="7213"></path></svg>