<?xml version="1.0" standalone="no"?><!DOCTYPE svg PUBLIC "-//W3C//DTD SVG 1.1//EN" "http://www.w3.org/Graphics/SVG/1.1/DTD/svg11.dtd"><svg t="1551083752099" class="icon" style="" viewBox="0 0 1024 1024" version="1.1" xmlns="http://www.w3.org/2000/svg" p-id="2990" xmlns:xlink="http://www.w3.org/1999/xlink" width="16" height="16"><defs><style type="text/css"></style></defs><path d="M320 678.4l96-192 38.4 83.2s6.4 19.2 25.6 19.2c19.2 0 32-19.2 32-19.2L672 320c32-6.4 57.6-32 57.6-64 0-38.4-25.6-64-64-64s-64 25.6-64 64c0 12.8 6.4 25.6 12.8 38.4l-121.6 192L448 403.2S441.6 384 416 384c-19.2 0-25.6 19.2-25.6 19.2L268.8 640H160c-19.2 0-32-12.8-32-32v-448c0-19.2 12.8-32 32-32h704c19.2 0 32 12.8 32 32v448c0 19.2-12.8 32-32 32H448v256H224c-19.2 0-32 12.8-32 32s12.8 32 32 32h512c19.2 0 32-12.8 32-32s-12.8-32-32-32H512v-192h384c32 0 64-32 64-64V128c0-38.4-32-64-64-64H128c-32 0-64 25.6-64 64v512c0 32 32 64 64 64h160s12.8 0 19.2-6.4c6.4-6.4 12.8-19.2 12.8-19.2z" fill="" p-id="2991"></path></svg>