<?xml version="1.0" standalone="no"?><!DOCTYPE svg PUBLIC "-//W3C//DTD SVG 1.1//EN" "http://www.w3.org/Graphics/SVG/1.1/DTD/svg11.dtd"><svg t="1551960683352" class="icon" style="" viewBox="0 0 1024 1024" version="1.1" xmlns="http://www.w3.org/2000/svg" p-id="8041" xmlns:xlink="http://www.w3.org/1999/xlink" width="16" height="16"><defs><style type="text/css"></style></defs><path d="M220.306286 211.748571c72.996571-66.267429 173.860571-107.227429 285.037714-107.227428 123.172571 0 237.056 50.834286 312.539429 134.582857L678.253714 365.714286H1024V52.224l-124.123429 112.64C802.816 61.878857 659.602286 0 505.344 0 362.349714 0 232.740571 52.662857 138.825143 137.874286 70.802286 199.533714 21.942857 277.723429 0 365.714286h118.491429c19.309714-59.392 54.637714-111.177143 101.814857-153.965715zM803.84 812.251429c-73.142857 66.267429-173.933714 107.227429-285.184 107.227428-123.099429 0-236.982857-50.834286-312.466286-134.582857L345.819429 658.285714H0v313.490286l124.123429-112.64C221.184 962.121143 364.397714 1024 518.656 1024c143.067429 0 272.676571-52.662857 366.665143-137.874286A459.849143 459.849143 0 0 0 1024 658.285714h-118.857143a361.106286 361.106286 0 0 1-101.376 153.965715z" p-id="8042"></path></svg>