<?xml version="1.0" standalone="no"?><!DOCTYPE svg PUBLIC "-//W3C//DTD SVG 1.1//EN" "http://www.w3.org/Graphics/SVG/1.1/DTD/svg11.dtd"><svg t="1548433029766" class="icon" style="" viewBox="0 0 1024 1024" version="1.1" xmlns="http://www.w3.org/2000/svg" p-id="2150" xmlns:xlink="http://www.w3.org/1999/xlink" width="16" height="16"><defs><style type="text/css"></style></defs><path d="M994.816 433.152l-111.616-22.528c-12.8-2.56-23.04-11.264-27.136-23.552-3.584-10.24-7.68-19.968-12.288-29.696-5.632-11.776-4.608-25.088 2.56-35.84l62.976-94.72c9.728-14.336 7.68-33.792-4.608-46.08l-60.928-60.928c-12.288-12.288-31.744-14.336-46.08-4.608l-94.72 62.976c-10.752 7.168-24.576 8.192-35.84 2.56-9.728-4.608-19.456-8.704-29.696-12.288-12.288-4.096-20.992-14.848-23.552-27.136l-22.528-111.616c-3.584-16.896-18.432-29.184-35.84-29.184H468.992c-17.408 0-32.256 12.288-35.84 29.184l-22.528 111.616c-2.56 12.288-11.264 22.528-23.552 27.136-10.24 3.584-19.968 7.68-29.696 12.288-11.776 5.632-25.088 4.608-35.84-2.56L226.816 114.688c-14.336-9.728-33.792-7.68-46.08 4.608l-61.44 60.928c-12.288 12.288-14.336 31.744-4.608 46.08l62.976 94.72c7.168 10.752 8.192 24.576 2.56 35.84-4.608 9.728-8.704 19.456-12.288 29.696-4.096 12.8-14.336 21.504-27.136 24.064L29.184 433.152c-16.896 3.584-29.184 18.432-29.184 35.84v86.528c0 17.408 12.288 32.256 29.184 35.84l111.616 22.528c12.8 2.56 23.04 11.264 27.136 23.552 3.584 10.24 7.68 19.968 12.288 29.696 5.632 11.776 4.608 25.088-2.56 35.84l-62.976 94.72c-9.728 14.336-7.68 33.792 4.608 46.08l60.928 60.928c12.288 12.288 31.744 14.336 46.08 4.608l94.72-62.976c10.752-7.168 24.576-8.192 35.84-2.56 9.728 4.608 19.456 8.704 29.696 12.288 12.288 4.096 20.992 14.848 23.552 27.136l22.528 111.616c3.584 16.896 18.432 29.184 35.84 29.184h86.528c17.408 0 32.256-12.288 35.84-29.184l22.528-111.616c2.56-12.8 11.264-23.04 23.552-27.136 10.24-3.584 19.968-7.68 29.696-12.288 11.776-5.632 25.088-4.608 35.84 2.56l94.72 62.976c14.336 9.728 33.792 7.68 46.08-4.608l60.928-60.928c12.288-12.288 14.336-31.744 4.608-46.08l-62.976-94.72c-7.168-10.752-8.192-24.576-2.56-35.84 4.608-9.728 8.704-19.456 12.288-29.696 4.096-12.288 14.848-20.992 27.136-23.552l111.616-22.528c16.896-3.584 29.184-18.432 29.184-35.84V468.992c0.512-17.408-11.776-32.768-28.672-35.84z m-327.68 233.984c-85.504 85.504-224.768 85.504-310.272 0-85.504-85.504-85.504-224.768 0-310.272 85.504-85.504 224.768-85.504 310.272 0 40.96 40.96 64.512 96.768 64.512 155.136 0 58.368-23.04 114.176-64.512 155.136z" p-id="2151"></path></svg>